<mxfile host="app.diagrams.net" modified="2021-04-27T10:39:10.953Z" agent="5.0 (Windows)" etag="6dQcmM7WMoIwMv8EmF3K" version="14.6.6" type="github">
  <diagram id="5J03Mtii3BxHRsXuewLy" name="Page-1">
    <mxGraphModel dx="1355" dy="743" grid="1" gridSize="10" guides="1" tooltips="1" connect="1" arrows="1" fold="1" page="1" pageScale="1" pageWidth="850" pageHeight="1100" math="0" shadow="0">
      <root>
        <mxCell id="0" />
        <mxCell id="1" parent="0" />
        <mxCell id="m6X-4Q9BF1POl7Cd6DDW-10" value="" style="edgeStyle=orthogonalEdgeStyle;rounded=0;orthogonalLoop=1;jettySize=auto;html=1;" edge="1" parent="1" source="m6X-4Q9BF1POl7Cd6DDW-1" target="m6X-4Q9BF1POl7Cd6DDW-2">
          <mxGeometry relative="1" as="geometry" />
        </mxCell>
        <mxCell id="m6X-4Q9BF1POl7Cd6DDW-12" style="edgeStyle=orthogonalEdgeStyle;rounded=0;orthogonalLoop=1;jettySize=auto;html=1;" edge="1" parent="1" source="m6X-4Q9BF1POl7Cd6DDW-1" target="m6X-4Q9BF1POl7Cd6DDW-4">
          <mxGeometry relative="1" as="geometry" />
        </mxCell>
        <mxCell id="m6X-4Q9BF1POl7Cd6DDW-1" value="1" style="ellipse;whiteSpace=wrap;html=1;aspect=fixed;" vertex="1" parent="1">
          <mxGeometry x="360" y="80" width="80" height="80" as="geometry" />
        </mxCell>
        <mxCell id="m6X-4Q9BF1POl7Cd6DDW-11" style="edgeStyle=orthogonalEdgeStyle;rounded=0;orthogonalLoop=1;jettySize=auto;html=1;" edge="1" parent="1" source="m6X-4Q9BF1POl7Cd6DDW-2" target="m6X-4Q9BF1POl7Cd6DDW-5">
          <mxGeometry relative="1" as="geometry" />
        </mxCell>
        <mxCell id="m6X-4Q9BF1POl7Cd6DDW-2" value="2" style="ellipse;whiteSpace=wrap;html=1;aspect=fixed;" vertex="1" parent="1">
          <mxGeometry x="360" y="220" width="80" height="80" as="geometry" />
        </mxCell>
        <mxCell id="m6X-4Q9BF1POl7Cd6DDW-19" value="" style="edgeStyle=orthogonalEdgeStyle;rounded=0;orthogonalLoop=1;jettySize=auto;html=1;" edge="1" parent="1" source="m6X-4Q9BF1POl7Cd6DDW-3" target="m6X-4Q9BF1POl7Cd6DDW-2">
          <mxGeometry relative="1" as="geometry" />
        </mxCell>
        <mxCell id="m6X-4Q9BF1POl7Cd6DDW-3" value="12,13" style="ellipse;whiteSpace=wrap;html=1;aspect=fixed;" vertex="1" parent="1">
          <mxGeometry x="360" y="340" width="80" height="80" as="geometry" />
        </mxCell>
        <mxCell id="m6X-4Q9BF1POl7Cd6DDW-13" style="edgeStyle=orthogonalEdgeStyle;rounded=0;orthogonalLoop=1;jettySize=auto;html=1;" edge="1" parent="1" source="m6X-4Q9BF1POl7Cd6DDW-4" target="m6X-4Q9BF1POl7Cd6DDW-5">
          <mxGeometry relative="1" as="geometry" />
        </mxCell>
        <mxCell id="m6X-4Q9BF1POl7Cd6DDW-4" value="3" style="ellipse;whiteSpace=wrap;html=1;aspect=fixed;" vertex="1" parent="1">
          <mxGeometry x="550" y="80" width="80" height="80" as="geometry" />
        </mxCell>
        <mxCell id="m6X-4Q9BF1POl7Cd6DDW-14" style="edgeStyle=orthogonalEdgeStyle;rounded=0;orthogonalLoop=1;jettySize=auto;html=1;entryX=0;entryY=0.5;entryDx=0;entryDy=0;" edge="1" parent="1" source="m6X-4Q9BF1POl7Cd6DDW-5" target="m6X-4Q9BF1POl7Cd6DDW-7">
          <mxGeometry relative="1" as="geometry" />
        </mxCell>
        <mxCell id="m6X-4Q9BF1POl7Cd6DDW-16" style="edgeStyle=orthogonalEdgeStyle;rounded=0;orthogonalLoop=1;jettySize=auto;html=1;" edge="1" parent="1" source="m6X-4Q9BF1POl7Cd6DDW-5" target="m6X-4Q9BF1POl7Cd6DDW-6">
          <mxGeometry relative="1" as="geometry" />
        </mxCell>
        <mxCell id="m6X-4Q9BF1POl7Cd6DDW-5" value="4" style="ellipse;whiteSpace=wrap;html=1;aspect=fixed;" vertex="1" parent="1">
          <mxGeometry x="550" y="220" width="80" height="80" as="geometry" />
        </mxCell>
        <mxCell id="m6X-4Q9BF1POl7Cd6DDW-17" value="" style="edgeStyle=orthogonalEdgeStyle;rounded=0;orthogonalLoop=1;jettySize=auto;html=1;" edge="1" parent="1" source="m6X-4Q9BF1POl7Cd6DDW-6" target="m6X-4Q9BF1POl7Cd6DDW-9">
          <mxGeometry relative="1" as="geometry" />
        </mxCell>
        <mxCell id="m6X-4Q9BF1POl7Cd6DDW-18" value="" style="edgeStyle=orthogonalEdgeStyle;rounded=0;orthogonalLoop=1;jettySize=auto;html=1;" edge="1" parent="1" source="m6X-4Q9BF1POl7Cd6DDW-6" target="m6X-4Q9BF1POl7Cd6DDW-3">
          <mxGeometry relative="1" as="geometry" />
        </mxCell>
        <mxCell id="m6X-4Q9BF1POl7Cd6DDW-6" value="5" style="ellipse;whiteSpace=wrap;html=1;aspect=fixed;" vertex="1" parent="1">
          <mxGeometry x="550" y="340" width="80" height="80" as="geometry" />
        </mxCell>
        <mxCell id="m6X-4Q9BF1POl7Cd6DDW-15" style="edgeStyle=orthogonalEdgeStyle;rounded=0;orthogonalLoop=1;jettySize=auto;html=1;" edge="1" parent="1" source="m6X-4Q9BF1POl7Cd6DDW-7" target="m6X-4Q9BF1POl7Cd6DDW-8">
          <mxGeometry relative="1" as="geometry" />
        </mxCell>
        <mxCell id="m6X-4Q9BF1POl7Cd6DDW-7" value="6" style="ellipse;whiteSpace=wrap;html=1;aspect=fixed;" vertex="1" parent="1">
          <mxGeometry x="740" y="220" width="80" height="80" as="geometry" />
        </mxCell>
        <mxCell id="m6X-4Q9BF1POl7Cd6DDW-8" value="7" style="ellipse;whiteSpace=wrap;html=1;aspect=fixed;" vertex="1" parent="1">
          <mxGeometry x="740" y="340" width="80" height="80" as="geometry" />
        </mxCell>
        <mxCell id="m6X-4Q9BF1POl7Cd6DDW-9" value="8,9,10,11" style="ellipse;whiteSpace=wrap;html=1;aspect=fixed;" vertex="1" parent="1">
          <mxGeometry x="550" y="460" width="80" height="80" as="geometry" />
        </mxCell>
      </root>
    </mxGraphModel>
  </diagram>
</mxfile>
